# xmcd
#
# Track frame offsets: 
#        150
#        26385
#        50275
#        70633
#        90085
#        104338
#        122779
#        142747
#        164925
#        183574
#        208449
#        227225
#        245468
#        267073
#        286455
#        298284
#
# Disc length: 4248 seconds
#
# Revision: 0
# Processed by: cddbd v1.5.2PL0 Copyright (c) Steve Scherf et al.
# Submitted via: ExactAudioCopyFreeDBPlugin 1.0
#
DISCID=ee109610
DTITLE=The Brooklyn Rhythm and Blues Project - The Brooklyn Rhythm and
DTITLE=Blues Project and Guests
DYEAR=2014
DGENRE=Blues
TTITLE0=Spooky
TTITLE1=The Love I Have
TTITLE2=There's Gotta Be A Change
TTITLE3=Touch On Me, Touch On You
TTITLE4=I Am
TTITLE5=Ego Trip
TTITLE6=I'll Play The Blues For You
TTITLE7=Have You No Shame?
TTITLE8=Breaking Up Somebody's Home
TTITLE9=Honey Jar
TTITLE10=Evil (Is Going On)
TTITLE11=Born Under A Bad Sign
TTITLE12=Feelin'blue
TTITLE13=Love So Gold
TTITLE14=Six Days On The Road
TTITLE15=Get It, Get It
EXTD=
EXTT0=
EXTT1=
EXTT2=
EXTT3=
EXTT4=
EXTT5=
EXTT6=
EXTT7=
EXTT8=
EXTT9=
EXTT10=
EXTT11=
EXTT12=
EXTT13=
EXTT14=
EXTT15=
PLAYORDER=
